<svg width="28" height="28" viewBox="0 0 28 28" fill="none" xmlns="http://www.w3.org/2000/svg">
<path d="M12.964 27.2606L11.3301 22.4405C10.4277 19.7784 8.32707 17.6089 5.56086 16.6713L0.740763 15.0374C-0.247003 14.7026 -0.246839 13.3002 0.740763 12.9654L5.56086 11.3315C8.22294 10.4291 10.3924 8.3284 11.3301 5.56225L12.964 0.742207C13.2989 -0.245559 14.7012 -0.24534 15.036 0.742207L16.67 5.56225C17.5724 8.22433 19.673 10.3938 22.4392 11.3315L27.2593 12.9654C28.247 13.3003 28.2468 14.7026 27.2593 15.0374L22.4392 16.6713C19.7772 17.5736 17.6076 19.6744 16.67 22.4405L15.036 27.2606C14.7012 28.2484 13.2988 28.2481 12.964 27.2606ZM4.49933 14.0014L6.26327 14.5993C9.55732 15.7159 12.2418 18.3152 13.4021 21.7381L14 23.502L14.598 21.7381C15.7146 18.4441 18.3139 15.7596 21.7368 14.5993L23.5007 14.0014L21.7368 13.4034C18.4427 12.2868 15.7582 9.68744 14.5979 6.26455L14 4.50061L13.4021 6.26455C12.2855 9.5586 9.68611 12.2431 6.26327 13.4034L4.49933 14.0014Z" fill="#141313"/>
</svg>
