<svg width="645" height="323" viewBox="0 0 645 323" fill="none" xmlns="http://www.w3.org/2000/svg">
<path d="M215.637 -0.000120001L0 124.498C100.654 160.028 196.291 104.811 215.637 -0.000120001Z" fill="url(#paint0_linear_3240_1116)"/>
<path d="M167.32 74.394H166.912L140.8 118.56L114.688 74.496H114.28V141H110.608V69.804H115.912L140.698 111.624H141.106L165.79 69.804H170.992V141H167.32V74.394ZM208.1 141V111.42L183.518 69.804H187.802L209.834 107.34H210.14L232.274 69.804H236.456L211.874 111.42V141H208.1ZM107.854 231V159.804H141.514C144.846 159.804 147.838 160.382 150.49 161.538C153.142 162.626 155.386 164.156 157.222 166.128C159.126 168.1 160.588 170.514 161.608 173.37C162.628 176.158 163.138 179.218 163.138 182.55C163.138 185.95 162.628 189.044 161.608 191.832C160.588 194.62 159.126 197 157.222 198.972C155.386 200.944 153.142 202.508 150.49 203.664C147.838 204.752 144.846 205.296 141.514 205.296H123.358V231H107.854ZM123.358 191.832H139.678C141.99 191.832 143.792 191.254 145.084 190.098C146.444 188.874 147.124 187.106 147.124 184.794V180.306C147.124 177.994 146.444 176.26 145.084 175.104C143.792 173.88 141.99 173.268 139.678 173.268H123.358V191.832ZM190.296 231H174.792V159.804H208.554C211.818 159.804 214.776 160.348 217.428 161.436C220.08 162.524 222.324 164.088 224.16 166.128C226.064 168.1 227.526 170.48 228.546 173.268C229.566 176.056 230.076 179.15 230.076 182.55C230.076 187.378 228.988 191.594 226.812 195.198C224.704 198.802 221.474 201.42 217.122 203.052L231.096 231H213.858L201.414 204.888H190.296V231ZM206.616 191.832C208.928 191.832 210.73 191.254 212.022 190.098C213.382 188.874 214.062 187.106 214.062 184.794V180.306C214.062 177.994 213.382 176.26 212.022 175.104C210.73 173.88 208.928 173.268 206.616 173.268H190.296V191.832H206.616ZM271.086 232.224C266.394 232.224 262.11 231.442 258.234 229.878C254.358 228.314 251.06 226.002 248.34 222.942C245.62 219.814 243.512 215.972 242.016 211.416C240.52 206.792 239.772 201.454 239.772 195.402C239.772 189.35 240.52 184.046 242.016 179.49C243.512 174.866 245.62 171.024 248.34 167.964C251.06 164.836 254.358 162.49 258.234 160.926C262.11 159.362 266.394 158.58 271.086 158.58C275.778 158.58 280.062 159.362 283.938 160.926C287.814 162.49 291.112 164.836 293.832 167.964C296.552 171.024 298.66 174.866 300.156 179.49C301.652 184.046 302.4 189.35 302.4 195.402C302.4 201.454 301.652 206.792 300.156 211.416C298.66 215.972 296.552 219.814 293.832 222.942C291.112 226.002 287.814 228.314 283.938 229.878C280.062 231.442 275.778 232.224 271.086 232.224ZM271.086 218.454C275.778 218.454 279.416 216.924 282 213.864C284.652 210.804 285.978 206.418 285.978 200.706V190.098C285.978 184.386 284.652 180 282 176.94C279.416 173.88 275.778 172.35 271.086 172.35C266.394 172.35 262.722 173.88 260.07 176.94C257.486 180 256.194 184.386 256.194 190.098V200.706C256.194 206.418 257.486 210.804 260.07 213.864C262.722 216.924 266.394 218.454 271.086 218.454ZM353.97 159.804V210.396C353.97 213.66 353.426 216.652 352.338 219.372C351.318 222.024 349.788 224.302 347.748 226.206C345.708 228.042 343.226 229.504 340.302 230.592C337.446 231.612 334.182 232.122 330.51 232.122C326.974 232.122 323.846 231.646 321.126 230.694C318.474 229.742 316.162 228.382 314.19 226.614C312.286 224.846 310.722 222.738 309.498 220.29C308.274 217.842 307.424 215.122 306.948 212.13L321.432 209.274C322.588 215.462 325.546 218.556 330.306 218.556C332.55 218.556 334.454 217.842 336.018 216.414C337.65 214.986 338.466 212.742 338.466 209.682V172.248H316.842V159.804H353.97ZM369.229 231V159.804H417.679V173.574H384.733V188.16H412.987V201.828H384.733V217.23H417.679V231H369.229ZM459.95 232.224C455.122 232.224 450.77 231.476 446.894 229.98C443.018 228.416 439.72 226.138 437 223.146C434.28 220.086 432.172 216.312 430.676 211.824C429.18 207.268 428.432 201.964 428.432 195.912C428.432 189.928 429.18 184.624 430.676 180C432.172 175.308 434.28 171.398 437 168.27C439.72 165.074 443.018 162.66 446.894 161.028C450.77 159.396 455.122 158.58 459.95 158.58C466.546 158.58 471.986 159.94 476.27 162.66C480.554 165.312 483.988 169.528 486.572 175.308L473.21 182.244C472.258 179.252 470.762 176.872 468.722 175.104C466.75 173.268 463.826 172.35 459.95 172.35C455.394 172.35 451.722 173.846 448.934 176.838C446.214 179.762 444.854 184.046 444.854 189.69V201.114C444.854 206.758 446.214 211.076 448.934 214.068C451.722 216.992 455.394 218.454 459.95 218.454C463.758 218.454 466.784 217.434 469.028 215.394C471.34 213.286 473.04 210.77 474.128 207.846L486.776 215.19C484.124 220.63 480.622 224.846 476.27 227.838C471.986 230.762 466.546 232.224 459.95 232.224ZM527.307 173.574V231H511.803V173.574H492.525V159.804H546.585V173.574H527.307ZM579.049 232.224C572.793 232.224 567.489 231.17 563.137 229.062C558.785 226.886 555.079 224.098 552.019 220.698L562.219 210.396C567.047 215.836 572.997 218.556 580.069 218.556C583.877 218.556 586.699 217.774 588.535 216.21C590.371 214.646 591.289 212.572 591.289 209.988C591.289 208.016 590.745 206.384 589.657 205.092C588.569 203.732 586.359 202.814 583.027 202.338L575.989 201.42C568.441 200.468 562.899 198.19 559.363 194.586C555.895 190.982 554.161 186.188 554.161 180.204C554.161 177.008 554.773 174.084 555.997 171.432C557.221 168.78 558.955 166.502 561.199 164.598C563.511 162.694 566.299 161.232 569.563 160.212C572.895 159.124 576.669 158.58 580.885 158.58C586.257 158.58 590.983 159.43 595.063 161.13C599.143 162.83 602.645 165.312 605.569 168.576L595.267 178.98C593.567 177.008 591.493 175.41 589.045 174.186C586.665 172.894 583.639 172.248 579.967 172.248C576.499 172.248 573.915 172.86 572.215 174.084C570.515 175.308 569.665 177.008 569.665 179.184C569.665 181.632 570.311 183.4 571.603 184.488C572.963 185.576 575.139 186.358 578.131 186.834L585.169 187.956C592.513 189.112 597.953 191.39 601.489 194.79C605.025 198.122 606.793 202.882 606.793 209.07C606.793 212.47 606.181 215.598 604.957 218.454C603.733 221.31 601.931 223.758 599.551 225.798C597.239 227.838 594.349 229.436 590.881 230.592C587.413 231.68 583.469 232.224 579.049 232.224Z" fill="#141313"/>
<defs>
<linearGradient id="paint0_linear_3240_1116" x1="224.856" y1="44.099" x2="37.2265" y2="150.04" gradientUnits="userSpaceOnUse">
<stop stop-color="#FFB147"/>
<stop offset="0.520264" stop-color="#FF6C63"/>
<stop offset="1" stop-color="#B86ADF"/>
</linearGradient>
</defs>
</svg>
