<svg width="32" height="32" viewBox="0 0 32 32" fill="none" xmlns="http://www.w3.org/2000/svg">
<circle cx="16" cy="16" r="16" fill="#141313" fill-opacity="0.05"/>
<path fill-rule="evenodd" clip-rule="evenodd" d="M10.4947 9.63428C9.06946 9.63428 7.91406 10.7897 7.91406 12.2149V20.8171C7.91406 22.2423 9.06946 23.3977 10.4947 23.3977H22.5377C23.963 23.3977 25.1184 22.2423 25.1184 20.8171V12.2149C25.1184 10.7897 23.963 9.63428 22.5377 9.63428H10.4947ZM9.71304 11.8553C9.84921 11.5598 10.148 11.3547 10.4947 11.3547H22.5377C22.8844 11.3547 23.1832 11.5598 23.3194 11.8553L17.0443 16.7359C16.7337 16.9775 16.2987 16.9775 15.9881 16.7359L9.71304 11.8553ZM9.63449 13.9738V18.9805L12.7421 16.3908L9.63449 13.9738ZM9.7058 21.1605C9.83841 21.4647 10.1417 21.6773 10.4947 21.6773H22.5377C22.8907 21.6773 23.194 21.4647 23.3266 21.1605L18.9003 17.4719L18.1006 18.0939C17.1687 18.8187 15.8638 18.8187 14.9319 18.0939L14.1321 17.4719L9.7058 21.1605ZM23.3979 18.9805V13.9738L20.2903 16.3908L23.3979 18.9805Z" fill="#141313"/>
</svg>
