<svg width="214" height="36" viewBox="0 0 214 36" fill="none" xmlns="http://www.w3.org/2000/svg">
<path d="M25.5973 13.016H25.4533L23.0053 17.912L16.4773 29.768L10.0933 17.96L7.54931 12.68H7.40531V35H0.541307V1.496H8.26931L16.4773 17.192H16.5733L24.6853 1.496H32.4613V35H25.5973V13.016ZM45.6774 35V21.896L34.2054 1.496H42.3654L49.5654 14.84H49.6614L56.5734 1.496H64.4934L53.0214 21.848V35H45.6774ZM75.1851 1.496H91.4571C94.2411 1.496 96.4011 2.28 97.9371 3.848C99.5051 5.416 100.289 7.496 100.289 10.088C100.289 11.368 100.113 12.456 99.7611 13.352C99.4411 14.248 98.9931 14.984 98.4171 15.56C97.8731 16.136 97.2171 16.568 96.4491 16.856C95.7131 17.112 94.9131 17.256 94.0491 17.288V17.576C94.8491 17.576 95.6811 17.72 96.5451 18.008C97.4411 18.296 98.2571 18.76 98.9931 19.4C99.7291 20.008 100.337 20.808 100.817 21.8C101.329 22.792 101.585 24.008 101.585 25.448C101.585 26.76 101.361 28.008 100.913 29.192C100.497 30.344 99.9051 31.352 99.1371 32.216C98.3691 33.08 97.4571 33.768 96.4011 34.28C95.3451 34.76 94.1931 35 92.9451 35H75.1851V1.496ZM82.4811 28.856H90.8811C91.8411 28.856 92.5931 28.6 93.1371 28.088C93.7131 27.544 94.0011 26.792 94.0011 25.832V24.2C94.0011 23.24 93.7131 22.504 93.1371 21.992C92.5931 21.448 91.8411 21.176 90.8811 21.176H82.4811V28.856ZM82.4811 15.224H89.7291C90.6891 15.224 91.4411 14.952 91.9851 14.408C92.5291 13.864 92.8011 13.112 92.8011 12.152V10.712C92.8011 9.752 92.5291 9 91.9851 8.456C91.4411 7.912 90.6891 7.64 89.7291 7.64H82.4811V15.224ZM104.801 35V1.496L112.097 1.496V28.52H124.865V35H104.801ZM139.372 35.576C137.164 35.576 135.148 35.208 133.324 34.472C131.5 33.736 129.948 32.648 128.668 31.208C127.388 29.736 126.396 27.928 125.692 25.784C124.988 23.608 124.636 21.096 124.636 18.248C124.636 15.4 124.988 12.904 125.692 10.76C126.396 8.584 127.388 6.776 128.668 5.336C129.948 3.864 131.5 2.76 133.324 2.024C135.148 1.288 137.164 0.919998 139.372 0.919998C141.58 0.919998 143.596 1.288 145.42 2.024C147.244 2.76 148.796 3.864 150.076 5.336C151.356 6.776 152.348 8.584 153.052 10.76C153.756 12.904 154.108 15.4 154.108 18.248C154.108 21.096 153.756 23.608 153.052 25.784C152.348 27.928 151.356 29.736 150.076 31.208C148.796 32.648 147.244 33.736 145.42 34.472C143.596 35.208 141.58 35.576 139.372 35.576ZM139.372 29.096C141.58 29.096 143.292 28.376 144.508 26.936C145.756 25.496 146.38 23.432 146.38 20.744V15.752C146.38 13.064 145.756 11 144.508 9.56C143.292 8.12 141.58 7.4 139.372 7.4C137.164 7.4 135.436 8.12 134.188 9.56C132.972 11 132.364 13.064 132.364 15.752V20.744C132.364 23.432 132.972 25.496 134.188 26.936C135.436 28.376 137.164 29.096 139.372 29.096ZM179.062 29.672H178.822C178.566 31.368 177.702 32.776 176.23 33.896C174.758 35.016 172.758 35.576 170.23 35.576C168.31 35.576 166.518 35.208 164.854 34.472C163.19 33.736 161.734 32.648 160.486 31.208C159.238 29.768 158.262 27.976 157.558 25.832C156.854 23.688 156.502 21.208 156.502 18.392C156.502 15.576 156.87 13.08 157.606 10.904C158.342 8.728 159.366 6.904 160.678 5.432C162.022 3.96 163.622 2.84 165.478 2.072C167.334 1.304 169.398 0.919998 171.67 0.919998C174.678 0.919998 177.27 1.576 179.446 2.888C181.622 4.168 183.334 6.104 184.582 8.696L178.63 12.104C178.118 10.792 177.318 9.688 176.23 8.792C175.142 7.864 173.622 7.4 171.67 7.4C169.398 7.4 167.59 8.056 166.246 9.368C164.902 10.68 164.23 12.744 164.23 15.56V20.936C164.23 23.72 164.902 25.784 166.246 27.128C167.59 28.44 169.398 29.096 171.67 29.096C172.566 29.096 173.414 29 174.214 28.808C175.014 28.584 175.718 28.264 176.326 27.848C176.934 27.4 177.398 26.872 177.718 26.264C178.07 25.656 178.246 24.936 178.246 24.104V22.424H172.006V16.328H185.206V35H179.062V29.672ZM200.746 35.576C197.802 35.576 195.306 35.08 193.258 34.088C191.21 33.064 189.466 31.752 188.026 30.152L192.826 25.304C195.098 27.864 197.898 29.144 201.226 29.144C203.018 29.144 204.346 28.776 205.21 28.04C206.074 27.304 206.506 26.328 206.506 25.112C206.506 24.184 206.25 23.416 205.738 22.808C205.226 22.168 204.186 21.736 202.618 21.512L199.306 21.08C195.754 20.632 193.146 19.56 191.482 17.864C189.85 16.168 189.034 13.912 189.034 11.096C189.034 9.592 189.322 8.216 189.898 6.968C190.474 5.72 191.29 4.648 192.346 3.752C193.434 2.856 194.746 2.168 196.282 1.688C197.85 1.176 199.626 0.919998 201.61 0.919998C204.138 0.919998 206.362 1.32 208.282 2.12C210.202 2.92 211.85 4.088 213.226 5.624L208.378 10.52C207.578 9.592 206.602 8.84 205.45 8.264C204.33 7.656 202.906 7.352 201.178 7.352C199.546 7.352 198.33 7.64 197.53 8.216C196.73 8.792 196.33 9.592 196.33 10.616C196.33 11.768 196.634 12.6 197.242 13.112C197.882 13.624 198.906 13.992 200.314 14.216L203.626 14.744C207.082 15.288 209.642 16.36 211.306 17.96C212.97 19.528 213.802 21.768 213.802 24.68C213.802 26.28 213.514 27.752 212.938 29.096C212.362 30.44 211.514 31.592 210.394 32.552C209.306 33.512 207.946 34.264 206.314 34.808C204.682 35.32 202.826 35.576 200.746 35.576Z" fill="url(#paint0_linear_3250_940)"/>
<defs>
<linearGradient id="paint0_linear_3250_940" x1="357.823" y1="60.5544" x2="-132.735" y2="52.6967" gradientUnits="userSpaceOnUse">
<stop stop-color="#FFB147"/>
<stop offset="0.520264" stop-color="#FF6C63"/>
<stop offset="1" stop-color="#B86ADF"/>
</linearGradient>
</defs>
</svg>
