<svg width="492" height="36" viewBox="0 0 492 36" fill="none" xmlns="http://www.w3.org/2000/svg">
<path d="M25.5192 13.016H25.3752L22.9272 17.912L16.3992 29.768L10.0152 17.96L7.47118 12.68H7.32718V35H0.463182V1.496H8.19118L16.3992 17.192H16.4952L24.6072 1.496H32.3832V35H25.5192V13.016ZM45.5993 35V21.896L34.1273 1.496H42.2873L49.4873 14.84H49.5833L56.4953 1.496L64.4153 1.496L52.9433 21.848V35H45.5993ZM80.3869 35L72.8029 1.496H80.0029L83.1709 17.576L84.9469 26.888H85.0909L87.2029 17.576L90.8989 1.496H98.8669L102.611 17.576L104.675 26.888H104.819L106.595 17.576L109.811 1.496H116.723L108.947 35H100.643L96.4189 16.856L94.7869 9.512H94.6429L92.9629 16.856L88.7389 35H80.3869ZM131.709 35.576C129.501 35.576 127.485 35.208 125.661 34.472C123.837 33.736 122.285 32.648 121.005 31.208C119.725 29.736 118.733 27.928 118.029 25.784C117.325 23.608 116.973 21.096 116.973 18.248C116.973 15.4 117.325 12.904 118.029 10.76C118.733 8.584 119.725 6.776 121.005 5.336C122.285 3.864 123.837 2.76 125.661 2.024C127.485 1.288 129.501 0.919998 131.709 0.919998C133.917 0.919998 135.933 1.288 137.757 2.024C139.581 2.76 141.133 3.864 142.413 5.336C143.693 6.776 144.685 8.584 145.389 10.76C146.093 12.904 146.445 15.4 146.445 18.248C146.445 21.096 146.093 23.608 145.389 25.784C144.685 27.928 143.693 29.736 142.413 31.208C141.133 32.648 139.581 33.736 137.757 34.472C135.933 35.208 133.917 35.576 131.709 35.576ZM131.709 29.096C133.917 29.096 135.629 28.376 136.845 26.936C138.093 25.496 138.717 23.432 138.717 20.744V15.752C138.717 13.064 138.093 11 136.845 9.56C135.629 8.12 133.917 7.4 131.709 7.4C129.501 7.4 127.773 8.12 126.525 9.56C125.309 11 124.701 13.064 124.701 15.752V20.744C124.701 23.432 125.309 25.496 126.525 26.936C127.773 28.376 129.501 29.096 131.709 29.096ZM157.431 35H150.135V1.496H166.023C167.559 1.496 168.951 1.752 170.199 2.264C171.447 2.776 172.503 3.512 173.367 4.472C174.263 5.4 174.951 6.52 175.431 7.832C175.911 9.144 176.151 10.6 176.151 12.2C176.151 14.472 175.639 16.456 174.615 18.152C173.623 19.848 172.103 21.08 170.055 21.848L176.631 35H168.519L162.663 22.712H157.431V35ZM165.111 16.568C166.199 16.568 167.047 16.296 167.655 15.752C168.295 15.176 168.615 14.344 168.615 13.256V11.144C168.615 10.056 168.295 9.24 167.655 8.696C167.047 8.12 166.199 7.832 165.111 7.832H157.431V16.568H165.111ZM191.743 20.408L187.375 25.688V35H180.079V1.496L187.375 1.496V17.432H187.663L192.415 10.952L199.951 1.496H208.207L196.927 15.272L209.215 35H200.623L191.743 20.408ZM220.044 35V1.496H242.844V7.976H227.34V14.84H240.636V21.272H227.34V28.52H242.844V35H220.044ZM274.641 35H266.193L258.945 22.664H258.801L251.745 35H243.873L254.625 17.672L244.401 1.496L252.897 1.496L259.425 12.824H259.569L266.193 1.496H274.065L263.745 17.816L274.641 35ZM276.698 35V1.496H292.538C294.106 1.496 295.514 1.768 296.762 2.312C298.01 2.824 299.066 3.544 299.93 4.472C300.826 5.4 301.514 6.536 301.994 7.88C302.474 9.192 302.714 10.632 302.714 12.2C302.714 13.8 302.474 15.256 301.994 16.568C301.514 17.88 300.826 19 299.93 19.928C299.066 20.856 298.01 21.592 296.762 22.136C295.514 22.648 294.106 22.904 292.538 22.904H283.994V35H276.698ZM283.994 16.568H291.674C292.762 16.568 293.61 16.296 294.218 15.752C294.858 15.176 295.178 14.344 295.178 13.256V11.144C295.178 10.056 294.858 9.24 294.218 8.696C293.61 8.12 292.762 7.832 291.674 7.832H283.994V16.568ZM305.798 35V1.496L328.598 1.496V7.976L313.094 7.976V14.84H326.39V21.272H313.094V28.52H328.598V35H305.798ZM339.85 35H332.554V1.496H348.442C349.978 1.496 351.37 1.752 352.618 2.264C353.866 2.776 354.922 3.512 355.786 4.472C356.682 5.4 357.37 6.52 357.85 7.832C358.33 9.144 358.57 10.6 358.57 12.2C358.57 14.472 358.058 16.456 357.034 18.152C356.042 19.848 354.522 21.08 352.474 21.848L359.05 35H350.938L345.082 22.712H339.85V35ZM347.53 16.568C348.618 16.568 349.466 16.296 350.074 15.752C350.714 15.176 351.034 14.344 351.034 13.256V11.144C351.034 10.056 350.714 9.24 350.074 8.696C349.466 8.12 348.618 7.832 347.53 7.832H339.85V16.568H347.53ZM361.202 35V29.192H365.522V7.304H361.202V1.496H377.138V7.304H372.818V29.192H377.138V35H361.202ZM380.816 35V1.496H403.616V7.976H388.112V14.84H401.408V21.272H388.112V28.52H403.616V35H380.816ZM417.797 19.16L414.581 12.44H414.437V35H407.573V1.496H415.541L424.709 17.336L427.925 24.056H428.069V1.496H434.933V35H426.965L417.797 19.16ZM453.443 35.576C451.171 35.576 449.123 35.224 447.299 34.52C445.475 33.784 443.923 32.712 442.643 31.304C441.363 29.864 440.371 28.088 439.667 25.976C438.963 23.832 438.611 21.336 438.611 18.488C438.611 15.672 438.963 13.176 439.667 11C440.371 8.792 441.363 6.952 442.643 5.48C443.923 3.976 445.475 2.84 447.299 2.072C449.123 1.304 451.171 0.919998 453.443 0.919998C456.547 0.919998 459.107 1.56 461.123 2.84C463.139 4.088 464.755 6.072 465.971 8.792L459.683 12.056C459.235 10.648 458.531 9.528 457.571 8.696C456.643 7.832 455.267 7.4 453.443 7.4C451.299 7.4 449.571 8.104 448.259 9.512C446.979 10.888 446.339 12.904 446.339 15.56V20.936C446.339 23.592 446.979 25.624 448.259 27.032C449.571 28.408 451.299 29.096 453.443 29.096C455.235 29.096 456.659 28.616 457.715 27.656C458.803 26.664 459.603 25.48 460.115 24.104L466.067 27.56C464.819 30.12 463.171 32.104 461.123 33.512C459.107 34.888 456.547 35.576 453.443 35.576ZM468.773 35V1.496H491.573V7.976H476.069V14.84H489.365V21.272H476.069V28.52H491.573V35H468.773Z" fill="url(#paint0_linear_3246_910)"/>
<defs>
<linearGradient id="paint0_linear_3246_910" x1="496.823" y1="26.7772" x2="6.64221" y2="11.0739" gradientUnits="userSpaceOnUse">
<stop stop-color="#FFB147"/>
<stop offset="0.520264" stop-color="#FF6C63"/>
<stop offset="1" stop-color="#B86ADF"/>
</linearGradient>
</defs>
</svg>
