<svg width="32" height="32" viewBox="0 0 32 32" fill="none" xmlns="http://www.w3.org/2000/svg">
<circle cx="16" cy="16" r="16" fill="#141313" fill-opacity="0.05"/>
<path fill-rule="evenodd" clip-rule="evenodd" d="M10.4327 10.0033C11.9444 8.49159 14.3954 8.49159 15.9071 10.0033C17.4188 11.515 17.4188 13.966 15.9071 15.4777C15.3444 16.0404 14.6516 16.3936 13.9255 16.5374L16.0639 18.6758C16.2077 17.9497 16.5609 17.2569 17.1236 16.6942C18.6353 15.1825 21.0863 15.1825 22.598 16.6942C24.1097 18.2059 24.1097 20.6569 22.598 22.1686C21.1891 23.5775 18.9643 23.6733 17.4445 22.456L17.4278 22.4727L17.1236 22.1686L10.4327 15.4777L10.1286 15.1735L10.1453 15.1568C8.92802 13.637 9.02383 11.4122 10.4327 10.0033ZM18.3402 20.9521C19.18 21.7919 20.5416 21.7919 21.3815 20.9521C22.2213 20.1122 22.2213 18.7506 21.3815 17.9107C20.5416 17.0709 19.18 17.0709 18.3402 17.9107C17.5003 18.7506 17.5003 20.1122 18.3402 20.9521ZM14.6906 14.2611C13.8507 15.101 12.4891 15.101 11.6493 14.2611C10.8094 13.4213 10.8094 12.0597 11.6493 11.2198C12.4891 10.38 13.8507 10.38 14.6906 11.2198C15.5304 12.0597 15.5304 13.4213 14.6906 14.2611Z" fill="#141313"/>
</svg>
