<svg width="368" height="44" viewBox="0 0 368 44" fill="none" xmlns="http://www.w3.org/2000/svg">
<path d="M24.4519 43.832H19.9399C17.3479 43.832 15.4599 43.224 14.2759 42.008C13.0919 40.792 12.4999 39.032 12.4999 36.728V35.336C8.91594 34.696 6.06794 32.952 3.95594 30.104C1.87594 27.224 0.835944 23.272 0.835944 18.248C0.835944 15.4 1.18794 12.904 1.89194 10.76C2.59594 8.584 3.58794 6.776 4.86794 5.336C6.14794 3.864 7.69994 2.76 9.52394 2.024C11.3479 1.288 13.3639 0.919998 15.5719 0.919998C17.7799 0.919998 19.7959 1.288 21.6199 2.024C23.4439 2.76 24.9959 3.864 26.2759 5.336C27.5559 6.776 28.5479 8.584 29.2519 10.76C29.9559 12.904 30.3079 15.4 30.3079 18.248C30.3079 23.112 29.3159 26.968 27.3319 29.816C25.3799 32.664 22.7079 34.456 19.3159 35.192V37.88H24.4519V43.832ZM15.5719 29.096C17.7799 29.096 19.4919 28.376 20.7079 26.936C21.9559 25.496 22.5799 23.432 22.5799 20.744V15.752C22.5799 13.064 21.9559 11 20.7079 9.56C19.4919 8.12 17.7799 7.4 15.5719 7.4C13.3639 7.4 11.6359 8.12 10.3879 9.56C9.17194 11 8.56394 13.064 8.56394 15.752V20.744C8.56394 23.432 9.17194 25.496 10.3879 26.936C11.6359 28.376 13.3639 29.096 15.5719 29.096ZM40.9096 1.496V22.04C40.9096 24.408 41.3736 26.184 42.3016 27.368C43.2296 28.52 44.7816 29.096 46.9576 29.096C49.1336 29.096 50.6856 28.52 51.6136 27.368C52.5416 26.184 53.0056 24.408 53.0056 22.04V1.496H60.1096V21.272C60.1096 23.736 59.8696 25.88 59.3896 27.704C58.9416 29.496 58.1896 30.984 57.1336 32.168C56.0776 33.32 54.7176 34.184 53.0536 34.76C51.3896 35.304 49.3576 35.576 46.9576 35.576C44.5576 35.576 42.5256 35.304 40.8616 34.76C39.1976 34.184 37.8376 33.32 36.7816 32.168C35.7256 30.984 34.9576 29.496 34.4776 27.704C34.0296 25.88 33.8056 23.736 33.8056 21.272V1.496H40.9096ZM84.3469 35L81.9469 27.032H70.7629L68.3629 35H60.9709L72.0109 1.496H81.0349L91.9309 35H84.3469ZM76.4269 8.12H76.1869L72.4909 20.84H80.1709L76.4269 8.12ZM94.1663 35V1.496H101.462V28.52H114.23V35H94.1663ZM115.923 35V29.192H120.243V7.304H115.923V1.496H131.859V7.304H127.539V29.192H131.859V35L115.923 35ZM135.538 35V1.496H157.762V7.976H142.834V14.84H155.554V21.272H142.834V35H135.538ZM159.92 35V29.192H164.24V7.304H159.92V1.496H175.856V7.304H171.536V29.192H175.856V35H159.92ZM193.071 35.576C190.799 35.576 188.751 35.224 186.927 34.52C185.103 33.784 183.551 32.712 182.271 31.304C180.991 29.864 179.999 28.088 179.295 25.976C178.591 23.832 178.239 21.336 178.239 18.488C178.239 15.672 178.591 13.176 179.295 11C179.999 8.792 180.991 6.952 182.271 5.48C183.551 3.976 185.103 2.84 186.927 2.072C188.751 1.304 190.799 0.919998 193.071 0.919998C196.175 0.919998 198.735 1.56 200.751 2.84C202.767 4.088 204.383 6.072 205.599 8.792L199.311 12.056C198.863 10.648 198.159 9.528 197.199 8.696C196.271 7.832 194.895 7.4 193.071 7.4C190.927 7.4 189.199 8.104 187.887 9.512C186.607 10.888 185.967 12.904 185.967 15.56V20.936C185.967 23.592 186.607 25.624 187.887 27.032C189.199 28.408 190.927 29.096 193.071 29.096C194.863 29.096 196.287 28.616 197.343 27.656C198.431 26.664 199.231 25.48 199.743 24.104L205.695 27.56C204.447 30.12 202.799 32.104 200.751 33.512C198.735 34.888 196.175 35.576 193.071 35.576ZM228.666 35L226.266 27.032H215.082L212.682 35H205.29L216.33 1.496L225.354 1.496L236.25 35H228.666ZM220.746 8.12H220.506L216.81 20.84H224.49L220.746 8.12ZM249.312 7.976V35H242.016V7.976H232.944V1.496H258.384V7.976H249.312ZM259.492 35V29.192H263.812V7.304H259.492V1.496H275.428V7.304H271.108V29.192H275.428V35H259.492ZM292.547 35.576C290.339 35.576 288.323 35.208 286.499 34.472C284.675 33.736 283.123 32.648 281.843 31.208C280.563 29.736 279.571 27.928 278.867 25.784C278.163 23.608 277.811 21.096 277.811 18.248C277.811 15.4 278.163 12.904 278.867 10.76C279.571 8.584 280.563 6.776 281.843 5.336C283.123 3.864 284.675 2.76 286.499 2.024C288.323 1.288 290.339 0.919998 292.547 0.919998C294.755 0.919998 296.771 1.288 298.595 2.024C300.419 2.76 301.971 3.864 303.251 5.336C304.531 6.776 305.523 8.584 306.227 10.76C306.931 12.904 307.283 15.4 307.283 18.248C307.283 21.096 306.931 23.608 306.227 25.784C305.523 27.928 304.531 29.736 303.251 31.208C301.971 32.648 300.419 33.736 298.595 34.472C296.771 35.208 294.755 35.576 292.547 35.576ZM292.547 29.096C294.755 29.096 296.467 28.376 297.683 26.936C298.931 25.496 299.555 23.432 299.555 20.744V15.752C299.555 13.064 298.931 11 297.683 9.56C296.467 8.12 294.755 7.4 292.547 7.4C290.339 7.4 288.611 8.12 287.363 9.56C286.147 11 285.539 13.064 285.539 15.752V20.744C285.539 23.432 286.147 25.496 287.363 26.936C288.611 28.376 290.339 29.096 292.547 29.096ZM321.197 19.16L317.981 12.44H317.837V35H310.973V1.496H318.941L328.109 17.336L331.325 24.056H331.469V1.496H338.333V35H330.365L321.197 19.16ZM354.155 35.576C351.211 35.576 348.715 35.08 346.667 34.088C344.619 33.064 342.875 31.752 341.435 30.152L346.235 25.304C348.507 27.864 351.307 29.144 354.635 29.144C356.427 29.144 357.755 28.776 358.619 28.04C359.483 27.304 359.915 26.328 359.915 25.112C359.915 24.184 359.659 23.416 359.147 22.808C358.635 22.168 357.595 21.736 356.027 21.512L352.715 21.08C349.163 20.632 346.555 19.56 344.891 17.864C343.259 16.168 342.443 13.912 342.443 11.096C342.443 9.592 342.731 8.216 343.307 6.968C343.883 5.72 344.699 4.648 345.755 3.752C346.843 2.856 348.155 2.168 349.691 1.688C351.259 1.176 353.035 0.919998 355.019 0.919998C357.547 0.919998 359.771 1.32 361.691 2.12C363.611 2.92 365.259 4.088 366.635 5.624L361.787 10.52C360.987 9.592 360.011 8.84 358.859 8.264C357.739 7.656 356.315 7.352 354.587 7.352C352.955 7.352 351.739 7.64 350.939 8.216C350.139 8.792 349.739 9.592 349.739 10.616C349.739 11.768 350.043 12.6 350.651 13.112C351.291 13.624 352.315 13.992 353.723 14.216L357.035 14.744C360.491 15.288 363.051 16.36 364.715 17.96C366.379 19.528 367.211 21.768 367.211 24.68C367.211 26.28 366.923 27.752 366.347 29.096C365.771 30.44 364.923 31.592 363.803 32.552C362.715 33.512 361.355 34.264 359.723 34.808C358.091 35.32 356.235 35.576 354.155 35.576Z" fill="url(#paint0_linear_1211_3729)"/>
<defs>
<linearGradient id="paint0_linear_1211_3729" x1="348.889" y1="26.7772" x2="27.1012" y2="20.0138" gradientUnits="userSpaceOnUse">
<stop stop-color="#FFB147"/>
<stop offset="0.520264" stop-color="#FF6C63"/>
<stop offset="1" stop-color="#B86ADF"/>
</linearGradient>
</defs>
</svg>
