<svg width="52" height="24" viewBox="0 0 52 24" fill="none" xmlns="http://www.w3.org/2000/svg">
<path d="M19.658 15.986C19.814 15.986 19.934 16.058 20.018 16.202C20.114 16.346 20.162 16.544 20.162 16.796C20.162 17.264 20.048 17.636 19.82 17.912C19.244 18.608 18.662 19.148 18.074 19.532C17.486 19.904 16.79 20.09 15.986 20.09C15.206 20.09 14.54 19.88 13.988 19.46C13.448 19.04 12.932 18.32 12.44 17.3C12.044 16.484 11.732 15.884 11.504 15.5C11.276 15.104 11.048 14.822 10.82 14.654C10.604 14.486 10.334 14.384 10.01 14.348C9.962 14.6 9.824 15.392 9.596 16.724C9.5 17.324 9.44 17.69 9.416 17.822C9.296 18.554 9.056 19.118 8.696 19.514C8.336 19.898 7.79 20.09 7.058 20.09C6.254 20.09 5.54 19.856 4.916 19.388C4.304 18.908 3.83 18.248 3.494 17.408C3.158 16.556 2.99 15.59 2.99 14.51C2.99 12.494 3.338 10.754 4.034 9.29C4.742 7.826 5.726 6.71 6.986 5.942C8.258 5.162 9.722 4.772 11.378 4.772C12.53 4.772 13.496 4.946 14.276 5.294C15.056 5.642 15.632 6.122 16.004 6.734C16.388 7.346 16.58 8.036 16.58 8.804C16.58 9.476 16.418 10.136 16.094 10.784C15.782 11.42 15.308 11.984 14.672 12.476C14.036 12.968 13.262 13.334 12.35 13.574C12.926 13.73 13.37 13.982 13.682 14.33C13.994 14.678 14.306 15.188 14.618 15.86C14.954 16.58 15.284 17.108 15.608 17.444C15.944 17.78 16.328 17.948 16.76 17.948C17.144 17.948 17.51 17.822 17.858 17.57C18.206 17.306 18.644 16.862 19.172 16.238C19.316 16.07 19.478 15.986 19.658 15.986ZM7.526 14.33C7.118 14.33 6.836 14.234 6.68 14.042C6.536 13.85 6.464 13.634 6.464 13.394C6.464 13.106 6.554 12.878 6.734 12.71C6.926 12.542 7.142 12.458 7.382 12.458H7.832C8.024 11.282 8.204 10.268 8.372 9.416C8.528 8.636 9.032 8.246 9.884 8.246C10.568 8.246 10.91 8.552 10.91 9.164C10.91 9.296 10.904 9.398 10.892 9.47L10.352 12.458C11 12.422 11.588 12.266 12.116 11.99C12.656 11.714 13.082 11.33 13.394 10.838C13.718 10.346 13.88 9.788 13.88 9.164C13.88 8.408 13.622 7.814 13.106 7.382C12.59 6.95 11.834 6.734 10.838 6.734C9.662 6.734 8.63 7.028 7.742 7.616C6.866 8.192 6.182 9.056 5.69 10.208C5.198 11.348 4.952 12.74 4.952 14.384C4.952 15.152 5.03 15.812 5.186 16.364C5.342 16.916 5.534 17.33 5.762 17.606C5.99 17.882 6.206 18.02 6.41 18.02C6.566 18.02 6.692 17.942 6.788 17.786C6.896 17.63 6.98 17.378 7.04 17.03L7.526 14.33ZM29.1059 15.986C29.2619 15.986 29.3819 16.058 29.4659 16.202C29.5619 16.346 29.6099 16.544 29.6099 16.796C29.6099 17.276 29.4959 17.648 29.2679 17.912C28.7279 18.572 28.1819 19.1 27.6299 19.496C27.0779 19.892 26.4239 20.09 25.6679 20.09C24.7439 20.09 23.9999 19.826 23.4359 19.298C22.8719 18.77 22.5899 18.068 22.5899 17.192C22.5899 16.724 22.8299 16.388 23.3099 16.184C23.8379 15.956 24.2159 15.716 24.4439 15.464C24.6719 15.2 24.7859 14.882 24.7859 14.51C24.7859 14.294 24.7379 14.132 24.6419 14.024C24.5579 13.916 24.4499 13.862 24.3179 13.862C23.9939 13.862 23.6339 14.096 23.2379 14.564C22.8539 15.032 22.4939 15.638 22.1579 16.382C21.8219 17.114 21.5579 17.87 21.3659 18.65C21.2339 19.214 21.0779 19.598 20.8979 19.802C20.7299 19.994 20.4599 20.09 20.0879 20.09C19.7159 20.09 19.4399 19.958 19.2599 19.694C19.0919 19.418 18.9779 18.998 18.9179 18.434C18.8579 17.87 18.8279 17.042 18.8279 15.95C18.8279 14.102 19.0139 12.176 19.3859 10.172C19.7699 8.168 20.3279 6.488 21.0599 5.132C21.8039 3.764 22.6919 3.08 23.7239 3.08C24.2759 3.08 24.7199 3.32 25.0559 3.8C25.4039 4.268 25.5779 4.88 25.5779 5.636C25.5779 6.848 25.2239 8.108 24.5159 9.416C23.8079 10.712 22.6559 12.23 21.0599 13.97C21.0239 14.594 21.0059 15.236 21.0059 15.896C21.5819 14.396 22.2419 13.31 22.9859 12.638C23.7299 11.954 24.4259 11.612 25.0739 11.612C25.6739 11.612 26.1539 11.816 26.5139 12.224C26.8859 12.632 27.0719 13.136 27.0719 13.736C27.0719 14.396 26.9039 15.002 26.5679 15.554C26.2319 16.106 25.6559 16.598 24.8399 17.03C24.8879 17.354 25.0319 17.618 25.2719 17.822C25.5239 18.014 25.8239 18.11 26.1719 18.11C26.5439 18.11 26.9039 17.966 27.2519 17.678C27.5999 17.39 28.0559 16.91 28.6199 16.238C28.7639 16.07 28.9259 15.986 29.1059 15.986ZM23.3459 4.862C23.1299 4.862 22.8899 5.174 22.6259 5.798C22.3619 6.41 22.1039 7.244 21.8519 8.3C21.6119 9.344 21.4139 10.484 21.2579 11.72C22.0019 10.844 22.6139 9.89 23.0939 8.858C23.5859 7.826 23.8319 6.89 23.8319 6.05C23.8319 5.666 23.7899 5.372 23.7059 5.168C23.6219 4.964 23.5019 4.862 23.3459 4.862ZM42.1089 9.272C42.1089 10.292 41.8449 11.228 41.3169 12.08C40.7889 12.932 40.0209 13.628 39.0129 14.168C38.0049 14.708 36.8049 15.026 35.4129 15.122L34.6389 19.46C34.3389 21.128 33.5229 21.962 32.1909 21.962C31.4589 21.962 30.7809 21.746 30.1569 21.314C29.5449 20.882 29.0529 20.222 28.6809 19.334C28.3089 18.446 28.1229 17.354 28.1229 16.058C28.1229 13.622 28.5129 11.558 29.2929 9.866C30.0849 8.162 31.1409 6.89 32.4609 6.05C33.7929 5.198 35.2569 4.772 36.8529 4.772C37.9809 4.772 38.9349 4.97 39.7149 5.366C40.5069 5.762 41.1009 6.302 41.4969 6.986C41.9049 7.658 42.1089 8.42 42.1089 9.272ZM35.7369 13.268C38.1969 12.956 39.4269 11.678 39.4269 9.434C39.4269 8.642 39.1629 8 38.6349 7.508C38.1189 7.004 37.3149 6.752 36.2229 6.752C34.9869 6.752 33.9069 7.142 32.9829 7.922C32.0709 8.702 31.3629 9.788 30.8589 11.18C30.3669 12.56 30.1209 14.138 30.1209 15.914C30.1209 16.658 30.1929 17.318 30.3369 17.894C30.4929 18.47 30.6849 18.92 30.9129 19.244C31.1529 19.556 31.3809 19.712 31.5969 19.712C31.8969 19.712 32.1249 19.298 32.2809 18.47L32.8749 15.068C32.4069 14.996 32.2029 14.966 32.2629 14.978C31.9029 14.918 31.6689 14.81 31.5609 14.654C31.4529 14.486 31.3989 14.276 31.3989 14.024C31.3989 13.76 31.4709 13.55 31.6149 13.394C31.7709 13.238 31.9809 13.16 32.2449 13.16C32.3649 13.16 32.4549 13.166 32.5149 13.178C32.8029 13.226 33.0249 13.256 33.1809 13.268C33.3369 12.332 33.5589 11.078 33.8469 9.506C33.9189 9.098 34.0809 8.81 34.3329 8.642C34.5969 8.462 34.9029 8.372 35.2509 8.372C35.6469 8.372 35.9289 8.45 36.0969 8.606C36.2769 8.75 36.3669 8.984 36.3669 9.308C36.3669 9.5 36.3549 9.656 36.3309 9.776L35.7369 13.268Z" fill="url(#paint0_linear_3231_948)"/>
<path d="M39 20.837C39 20.3747 38.6253 20 38.163 20H5.2357C5.11282 20 4.99015 20.0102 4.86895 20.0304L4.08 20.1619C2.4934 20.4264 1.95994 22.4385 3.20709 23.4543V23.4543C3.47608 23.6734 3.80076 23.8133 4.14476 23.8584L4.75434 23.9382C5.06735 23.9791 5.38488 23.9704 5.69518 23.9124L10.8557 22.9474L17.6907 22.5263L30.9588 22.1053L37.7164 22.5215C37.7671 22.5247 37.8176 22.5139 37.8625 22.4904V22.4904C38.0988 22.3666 38.0421 22.0133 37.7789 21.9698L31.2017 20.8823C31.0401 20.8556 30.8763 20.8447 30.7126 20.8499L17.6907 21.2632L10.4536 22.1053L4.95731 22.5164C4.86967 22.523 4.78158 22.5134 4.69738 22.4882L4.46483 22.4186C4.01566 22.2842 3.8961 21.7043 4.25549 21.4032V21.4032C4.36337 21.3128 4.50005 21.2641 4.64077 21.2658L38.1528 21.6739C38.619 21.6796 39 21.3032 39 20.837V20.837Z" fill="url(#paint1_linear_3231_948)"/>
<defs>
<linearGradient id="paint0_linear_3231_948" x1="8" y1="15.5" x2="41.5" y2="16" gradientUnits="userSpaceOnUse">
<stop stop-color="#FF9D00"/>
<stop offset="0.885" stop-color="#FF00D0"/>
<stop offset="1" stop-color="#FB00FF"/>
</linearGradient>
<linearGradient id="paint1_linear_3231_948" x1="4.82474" y1="21.6842" x2="37.7955" y2="20.9163" gradientUnits="userSpaceOnUse">
<stop stop-color="#FDAD00"/>
<stop offset="0.605" stop-color="#FF00B3"/>
<stop offset="1" stop-color="#FB00FF"/>
</linearGradient>
</defs>
</svg>
