<svg width="150" height="36" viewBox="0 0 150 36" fill="none" xmlns="http://www.w3.org/2000/svg">
<path d="M13.5674 35.576C10.6234 35.576 8.12744 35.08 6.07944 34.088C4.03144 33.064 2.28744 31.752 0.847438 30.152L5.64744 25.304C7.91944 27.864 10.7194 29.144 14.0474 29.144C15.8394 29.144 17.1674 28.776 18.0314 28.04C18.8954 27.304 19.3274 26.328 19.3274 25.112C19.3274 24.184 19.0714 23.416 18.5594 22.808C18.0474 22.168 17.0074 21.736 15.4394 21.512L12.1274 21.08C8.57544 20.632 5.96744 19.56 4.30344 17.864C2.67144 16.168 1.85544 13.912 1.85544 11.096C1.85544 9.592 2.14344 8.216 2.71944 6.968C3.29544 5.72 4.11144 4.648 5.16744 3.752C6.25544 2.856 7.56744 2.168 9.10344 1.688C10.6714 1.176 12.4474 0.919998 14.4314 0.919998C16.9594 0.919998 19.1834 1.32 21.1034 2.12C23.0234 2.92 24.6714 4.088 26.0474 5.624L21.1994 10.52C20.3994 9.592 19.4234 8.84 18.2714 8.264C17.1514 7.656 15.7274 7.352 13.9994 7.352C12.3674 7.352 11.1514 7.64 10.3514 8.216C9.55144 8.792 9.15144 9.592 9.15144 10.616C9.15144 11.768 9.45544 12.6 10.0634 13.112C10.7034 13.624 11.7274 13.992 13.1354 14.216L16.4474 14.744C19.9034 15.288 22.4634 16.36 24.1274 17.96C25.7914 19.528 26.6234 21.768 26.6234 24.68C26.6234 26.28 26.3354 27.752 25.7594 29.096C25.1834 30.44 24.3354 31.592 23.2154 32.552C22.1274 33.512 20.7674 34.264 19.1354 34.808C17.5034 35.32 15.6474 35.576 13.5674 35.576ZM41.9366 20.408L37.5686 25.688V35H30.2726V1.496L37.5686 1.496V17.432H37.8566L42.6086 10.952L50.1446 1.496H58.4006L47.1206 15.272L59.4086 35H50.8166L41.9366 20.408ZM59.9984 35V29.192H64.3184V7.304H59.9984V1.496H75.9344V7.304H71.6144V29.192H75.9344V35H59.9984ZM79.6132 35V1.496H86.9092V28.52H99.6772V35H79.6132ZM102.666 35V1.496H109.962V28.52H122.73V35H102.666ZM136.567 35.576C133.623 35.576 131.127 35.08 129.079 34.088C127.031 33.064 125.287 31.752 123.847 30.152L128.647 25.304C130.919 27.864 133.719 29.144 137.047 29.144C138.839 29.144 140.167 28.776 141.031 28.04C141.895 27.304 142.327 26.328 142.327 25.112C142.327 24.184 142.071 23.416 141.559 22.808C141.047 22.168 140.007 21.736 138.439 21.512L135.127 21.08C131.575 20.632 128.967 19.56 127.303 17.864C125.671 16.168 124.855 13.912 124.855 11.096C124.855 9.592 125.143 8.216 125.719 6.968C126.295 5.72 127.111 4.648 128.167 3.752C129.255 2.856 130.567 2.168 132.103 1.688C133.671 1.176 135.447 0.919998 137.431 0.919998C139.959 0.919998 142.183 1.32 144.103 2.12C146.023 2.92 147.671 4.088 149.047 5.624L144.199 10.52C143.399 9.592 142.423 8.84 141.271 8.264C140.151 7.656 138.727 7.352 136.999 7.352C135.367 7.352 134.151 7.64 133.351 8.216C132.551 8.792 132.151 9.592 132.151 10.616C132.151 11.768 132.455 12.6 133.063 13.112C133.703 13.624 134.727 13.992 136.135 14.216L139.447 14.744C142.903 15.288 145.463 16.36 147.127 17.96C148.791 19.528 149.623 21.768 149.623 24.68C149.623 26.28 149.335 27.752 148.759 29.096C148.183 30.44 147.335 31.592 146.215 32.552C145.127 33.512 143.767 34.264 142.135 34.808C140.503 35.32 138.647 35.576 136.567 35.576Z" fill="url(#paint0_linear_1211_3734)"/>
<defs>
<linearGradient id="paint0_linear_1211_3734" x1="143.317" y1="26.7772" x2="10.9205" y2="25.6327" gradientUnits="userSpaceOnUse">
<stop stop-color="#FFB147"/>
<stop offset="0.520264" stop-color="#FF6C63"/>
<stop offset="1" stop-color="#B86ADF"/>
</linearGradient>
</defs>
</svg>
